<?xml version="1.0"?>
<svg xmlns="http://www.w3.org/2000/svg" xmlns:xlink="http://www.w3.org/1999/xlink" xmlns:svgjs="http://svgjs.com/svgjs" version="1.1" width="512" height="512" x="0" y="0" viewBox="0 0 512 512" style="enable-background:new 0 0 512 512" xml:space="preserve" class=""><g transform="matrix(1,0,0,1,0,0)">
<circle xmlns="http://www.w3.org/2000/svg" style="" cx="256" cy="256" r="256" fill="#cd8222" data-original="#00fbee" class=""/>
<path xmlns="http://www.w3.org/2000/svg" style="" d="M512,256c0,141.38-114.62,256-256,256c-7.58,0-15.08-0.33-22.49-0.97L114.47,392.21  C103.62,380.12,97,364.17,97,346.75v-181.5C97,127.71,127.71,97,165.25,97h181.5c18.64,0,35.59,7.59,47.94,19.81l116.34,116.72  C511.67,240.93,512,248.43,512,256z" fill="#cd8222" data-original="#00d0ff" class=""/>
<path xmlns="http://www.w3.org/2000/svg" style="" d="M346.75,415h-181.5C127.712,415,97,384.288,97,346.75v-181.5C97,127.713,127.712,97,165.25,97h181.5  c37.537,0,68.25,30.713,68.25,68.25v181.5C415,384.288,384.287,415,346.75,415z" fill="#bac71d" data-original="#009aff" class=""/>
<path xmlns="http://www.w3.org/2000/svg" style="" d="M415,165.25v181.5c0,37.54-30.71,68.25-68.25,68.25H256V97h90.75C384.29,97,415,127.71,415,165.25z" fill="#1baf33" data-original="#0074c9" class=""/>
<polygon xmlns="http://www.w3.org/2000/svg" style="" points="166,256.257 166,182.25 143.5,182.25 143.5,329.75 166,329.75 166,283.88 346,283.88   346,329.75 368.5,329.75 368.5,256.257 " fill="#32bf48" data-original="#ffffff" class=""/>
<polygon xmlns="http://www.w3.org/2000/svg" style="" points="368.5,256.261 368.5,329.75 346,329.75 346,283.884 256,283.884 256,256.261 " fill="#bac71d" data-original="#e0e0e2" class=""/>
<rect xmlns="http://www.w3.org/2000/svg" x="177.37" y="219.78" style="" width="66.5" height="24.24" fill="#32bf48" data-original="#ffffff" class=""/>
<g xmlns="http://www.w3.org/2000/svg">
</g>
<g xmlns="http://www.w3.org/2000/svg">
</g>
<g xmlns="http://www.w3.org/2000/svg">
</g>
<g xmlns="http://www.w3.org/2000/svg">
</g>
<g xmlns="http://www.w3.org/2000/svg">
</g>
<g xmlns="http://www.w3.org/2000/svg">
</g>
<g xmlns="http://www.w3.org/2000/svg">
</g>
<g xmlns="http://www.w3.org/2000/svg">
</g>
<g xmlns="http://www.w3.org/2000/svg">
</g>
<g xmlns="http://www.w3.org/2000/svg">
</g>
<g xmlns="http://www.w3.org/2000/svg">
</g>
<g xmlns="http://www.w3.org/2000/svg">
</g>
<g xmlns="http://www.w3.org/2000/svg">
</g>
<g xmlns="http://www.w3.org/2000/svg">
</g>
<g xmlns="http://www.w3.org/2000/svg">
</g>
</g></svg>
